<svg width="81" height="81" viewBox="0 0 81 81" fill="none" xmlns="http://www.w3.org/2000/svg">
<path fill-rule="evenodd" clip-rule="evenodd" d="M7.59375 7.59375C6.92242 7.59375 6.27859 7.86043 5.80389 8.33514C5.32918 8.80984 5.0625 9.45367 5.0625 10.125V34.425C5.0625 36.087 5.38986 37.7328 6.0259 39.2683C6.66194 40.8039 7.59419 42.1991 8.76943 43.3743C11.1429 45.7478 14.3621 47.0812 17.7188 47.0812H67.2958L50.3516 64.0204C49.8763 64.4957 49.6093 65.1403 49.6093 65.8125C49.6093 66.4847 49.8763 67.1293 50.3516 67.6046C50.8269 68.0799 51.4716 68.3469 52.1437 68.3469C52.8159 68.3469 53.4606 68.0799 53.9359 67.6046L75.1984 46.3421C75.4341 46.107 75.6211 45.8277 75.7487 45.5201C75.8763 45.2126 75.942 44.8829 75.942 44.55C75.942 44.2171 75.8763 43.8874 75.7487 43.5799C75.6211 43.2723 75.4341 42.993 75.1984 42.7579L54.9484 22.5079C54.4731 22.0326 53.8284 21.7656 53.1562 21.7656C52.4841 21.7656 51.8394 22.0326 51.3641 22.5079C50.8888 22.9832 50.6218 23.6278 50.6218 24.3C50.6218 24.9722 50.8888 25.6168 51.3641 26.0921L67.2958 42.0187H17.7188C15.7048 42.0187 13.7733 41.2187 12.3492 39.7946C10.9251 38.3705 10.125 36.439 10.125 34.425V10.125C10.125 9.45367 9.85832 8.80984 9.38361 8.33514C8.90891 7.86043 8.26508 7.59375 7.59375 7.59375Z" fill="white"/>
</svg>
